<svg id="eSixX8tTOeN1" xmlns="http://www.w3.org/2000/svg" xmlns:xlink="http://www.w3.org/1999/xlink" viewBox="0 0 32 32" shape-rendering="geometricPrecision" text-rendering="geometricPrecision" project-id="4a4a866f81bc406fb2ec60550a1a2dba" export-id="066478e699e34dbc9b72b688435e77a1" cached="false">
<style><![CDATA[
#eSixX8tTOeN2_ts {animation: eSixX8tTOeN2_ts__ts 3000ms linear infinite normal forwards}@keyframes eSixX8tTOeN2_ts__ts { 0% {transform: translate(5px,22.997974px) scale(1,1)} 33.333333% {transform: translate(5px,22.997974px) scale(1,1);animation-timing-function: cubic-bezier(0.785,0.135,0.15,0.86)} 50% {transform: translate(5px,22.997974px) scale(0,0);animation-timing-function: cubic-bezier(0.785,0.135,0.15,0.86)} 66.666667% {transform: translate(5px,22.997974px) scale(0,0);animation-timing-function: cubic-bezier(0.785,0.135,0.15,0.86)} 83.333333% {transform: translate(5px,22.997974px) scale(1,1)} 100% {transform: translate(5px,22.997974px) scale(1,1)}} #eSixX8tTOeN3_ts {animation: eSixX8tTOeN3_ts__ts 3000ms linear infinite normal forwards}@keyframes eSixX8tTOeN3_ts__ts { 0% {transform: translate(28px,6.0125px) scale(1,1);animation-timing-function: cubic-bezier(0.785,0.135,0.15,0.86)} 43.333333% {transform: translate(28px,6.0125px) scale(0,0);animation-timing-function: cubic-bezier(0.785,0.135,0.15,0.86)} 56.666667% {transform: translate(28px,6.0125px) scale(0,0);animation-timing-function: cubic-bezier(0.785,0.135,0.15,0.86)} 93.333333% {transform: translate(28px,6.0125px) scale(1,1)} 100% {transform: translate(28px,6.0125px) scale(1,1)}} #eSixX8tTOeN4_tr {animation: eSixX8tTOeN4_tr__tr 3000ms linear infinite normal forwards}@keyframes eSixX8tTOeN4_tr__tr { 0% {transform: translate(17px,25px) rotate(0deg)} 66.666667% {transform: translate(17px,25px) rotate(0deg);animation-timing-function: cubic-bezier(0.785,0.135,0.15,0.86)} 100% {transform: translate(17px,25px) rotate(90deg)}} #eSixX8tTOeN4_ts {animation: eSixX8tTOeN4_ts__ts 3000ms linear infinite normal forwards}@keyframes eSixX8tTOeN4_ts__ts { 0% {transform: scale(1,1);animation-timing-function: cubic-bezier(0.785,0.135,0.15,0.86)} 16.666667% {transform: scale(0.75,0.75);animation-timing-function: cubic-bezier(0.785,0.135,0.15,0.86)} 33.333333% {transform: scale(1,1);animation-timing-function: cubic-bezier(0.785,0.135,0.15,0.86)} 50% {transform: scale(0.75,0.75);animation-timing-function: cubic-bezier(0.785,0.135,0.15,0.86)} 66.666667% {transform: scale(1,1);animation-timing-function: cubic-bezier(0.785,0.135,0.15,0.86)} 83.333333% {transform: scale(0.75,0.75);animation-timing-function: cubic-bezier(0.785,0.135,0.15,0.86)} 100% {transform: scale(1,1)}} #eSixX8tTOeN5_tr {animation: eSixX8tTOeN5_tr__tr 3000ms linear infinite normal forwards}@keyframes eSixX8tTOeN5_tr__tr { 0% {transform: translate(25.1px,15px) rotate(0deg);animation-timing-function: cubic-bezier(0.785,0.135,0.15,0.86)} 16.666667% {transform: translate(25.1px,15px) rotate(0deg);animation-timing-function: cubic-bezier(0.785,0.135,0.15,0.86)} 50% {transform: translate(25.1px,15px) rotate(-90deg)} 100% {transform: translate(25.1px,15px) rotate(-90deg)}} #eSixX8tTOeN5_ts {animation: eSixX8tTOeN5_ts__ts 3000ms linear infinite normal forwards}@keyframes eSixX8tTOeN5_ts__ts { 0% {transform: scale(1,1);animation-timing-function: cubic-bezier(0.785,0.135,0.15,0.86)} 16.666667% {transform: scale(1,1);animation-timing-function: cubic-bezier(0.785,0.135,0.15,0.86)} 50% {transform: scale(1.25,1.25);animation-timing-function: cubic-bezier(0.785,0.135,0.15,0.86)} 66.666667% {transform: scale(1,1)} 100% {transform: scale(1,1)}} #eSixX8tTOeN6_ts {animation: eSixX8tTOeN6_ts__ts 3000ms linear infinite normal forwards}@keyframes eSixX8tTOeN6_ts__ts { 0% {transform: translate(11px,9.9px) scale(1,1);animation-timing-function: cubic-bezier(0.785,0.135,0.15,0.86)} 16.666667% {transform: translate(11px,9.9px) scale(1.2,1.2);animation-timing-function: cubic-bezier(0.785,0.135,0.15,0.86)} 33.333333% {transform: translate(11px,9.9px) scale(0.5,0.5);animation-timing-function: cubic-bezier(0.785,0.135,0.15,0.86)} 50% {transform: translate(11px,9.9px) scale(1,1)} 66.666667% {transform: translate(11px,9.9px) scale(0.5,0.5);animation-timing-function: cubic-bezier(0.785,0.135,0.15,0.86)} 83.333333% {transform: translate(11px,9.9px) scale(1,1)} 100% {transform: translate(11px,9.9px) scale(1,1)}}
]]></style>
<g id="eSixX8tTOeN2_ts" transform="translate(5,22.997974) scale(1,1)"><path d="M5.7,22.3c-.3-.3-.7-.4-1.1-.2-.1,0-.2.1-.3.2s-.2.2-.2.3c-.1.1-.1.3-.1.4s0,.3.1.4.1.2.2.3.2.2.3.2c.1.1.3.1.4.1s.3,0,.4-.1.2-.1.3-.2.2-.2.2-.3c.1-.1.1-.3.1-.4s0-.3-.1-.4c0-.1-.1-.2-.2-.3Z" transform="translate(-5,-22.997974)" fill="#fff"/></g><g id="eSixX8tTOeN3_ts" transform="translate(28,6.0125) scale(1,1)"><path d="M28,7c.3,0,.5-.1.7-.3s.3-.4.3-.7-.1-.5-.3-.7c-.1-.1-.2-.2-.3-.2-.2-.1-.5-.1-.8,0-.1,0-.2.1-.3.2-.2.2-.3.4-.3.7s.1.5.3.7.4.3.7.3Z" transform="translate(-28,-6.0125)" fill="#fff"/></g><g id="eSixX8tTOeN4_tr" transform="translate(17,25) rotate(0)"><g id="eSixX8tTOeN4_ts" transform="scale(1,1)"><path d="M22,24c-2.8-.6-3.4-1.2-4-4-.1-.5-.5-.8-1-.8s-.9.3-1,.8c-.6,2.8-1.2,3.4-4,4-.5.1-.8.5-.8,1s.3.9.8,1c2.8.6,3.4,1.2,4,4c.1.5.5.8,1,.8s.9-.3,1-.8c.6-2.8,1.2-3.4,4-4c.5-.1.8-.5.8-1s-.4-.9-.8-1Z" transform="translate(-17,-25)" fill="#fff"/></g></g><g id="eSixX8tTOeN5_tr" transform="translate(25.1,15) rotate(0)"><g id="eSixX8tTOeN5_ts" transform="scale(1,1)"><path d="M29.2,14c-2.2-.4-2.7-.9-3.1-3.1-.1-.5-.5-.8-1-.8s-.9.3-1,.8c-.4,2.2-.9,2.7-3.1,3.1-.5.1-.8.5-.8,1s.3.9.8,1c2.2.4,2.7.9,3.1,3.1.1.5.5.8,1,.8s.9-.3,1-.8c.4-2.2.9-2.7,3.1-3.1.5-.1.8-.5.8-1s-.3-.9-.8-1Z" transform="translate(-25.1,-15)" fill="#fff"/></g></g><g id="eSixX8tTOeN6_ts" transform="translate(11,9.9) scale(1,1)"><path d="M12,17c.8-4.2,1.9-5.3,6.1-6.1.5-.1.8-.5.8-1s-.3-.9-.8-1C13.9,8.1,12.8,7,12,2.8c-.1-.5-.5-.8-1-.8s-.9.3-1,.8C9.2,7,8.1,8.1,3.9,8.9c-.4.1-.8.5-.8,1s.3.9.8,1c4.2.8,5.3,1.9,6.1,6.1.1.5.5.8,1,.8s.9-.4,1-.8Z" transform="translate(-11,-9.9)" fill="#fff"/></g></svg>
